PathFileType	4	(X/Y/Z)	pose_F01_0-96.trc
DataRate	CameraRate	NumFrames	NumMarkers	Units	OrigDataRate	OrigDataStartFrame	OrigNumFrames
30	30	7	21	m	30	60	96
Frame#	Time	CHip			RHip			RKnee			RAnkle			RBigToe			RSmallToe			RHeel			LHip			LKnee			LAnkle			LBigToe			LSmallToe			LHeel			Neck			Nose			RShoulder			RElbow			RWrist			LShoulder			LElbow			LWrist			
		X1	Y1	Z1	X2	Y2	Z2	X3	Y3	Z3	X4	Y4	Z4	X5	Y5	Z5	X6	Y6	Z6	X7	Y7	Z7	X8	Y8	Z8	X9	Y9	Z9	X10	Y10	Z10	X11	Y11	Z11	X12	Y12	Z12	X13	Y13	Z13	X14	Y14	Z14	X15	Y15	Z15	X16	Y16	Z16	X17	Y17	Z17	X18	Y18	Z18	X19	Y19	Z19	X20	Y20	Z20	X21	Y21	Z21	
60	2.0	-0.24453871234321797	1.8813215057924477	-0.5021038331984206	-0.26146972854033473	1.877295140482511	-0.44336778427303003	-0.2588177656342342	1.7374549396964427	-0.396474761909071													-0.22641524470755794	1.8855440050820371	-0.5693503834869845	-0.2223846233597154	1.7419753459134713	-0.546148284842537	-0.21204538362156847	1.6001084824830036	-0.5343901983957096	-0.21696248342764998	1.5607281471357906	-0.5991291068455202	-0.20854072232446508	1.5717979170546377	-0.609468420118526	-0.21221375849963628	1.5841773326179776	-0.5010725637279855	-0.23830921828550578	2.053046466963692	-0.5035326637704173	-0.24889562562919376	2.1299010607971787	-0.5564576788243045	-0.26109101226190023	2.052385978655436	-0.41827045872280494	-0.28728577724773363	1.9868184264485989	-0.4005446789362111	-0.32457553219459695	1.9279710992802401	-0.41698996598996724	-0.21579914604216305	2.055867930584681	-0.589751564483371	-0.207253537932356	1.978077431872947	-0.6173766188650136	-0.19907890046567542	1.9067921397119267	-0.6516740066962821
61	2.033333333333333	-0.2451860289979444	1.8861548091910612	-0.5031536820271733	-0.26198575835043486	1.8837302855345497	-0.4447416916638736	-0.2583943999082787	1.738343925516662	-0.3985376815310996													-0.22595001202144646	1.8910616084802776	-0.5672111280556236	-0.22238695515556806	1.741993607845007	-0.5461579454214847	-0.21252168072462163	1.6029123279334763	-0.5339837341742353	-0.21930587566405327	1.5622800895997808	-0.5966638320200562	-0.20884139176013813	1.573381058504716	-0.6090616266791538	-0.21317477194250192	1.5852062673215939	-0.5001475959452708	-0.23916897525127154	2.054516741644701	-0.5065459415658682	-0.24984886695580819	2.130941591416057	-0.5520077970260849	-0.26105931673473093	2.0548288035874926	-0.418806403206702	-0.2949916164243698	1.989957529499292	-0.4162396678785111	-1.595437155961498	1.8643777530336394	0.8953851660110754	-0.21667280851357398	2.0573896741795967	-0.5932574093424876	-0.2106337750593076	1.984660469850012	-0.6305661150104188	-0.2041330555576821	1.9159538899863617	-0.6799623838665716
62	2.066666666666667	-0.24494347616884324	1.8890784512860437	-0.5035996672688294	-0.25986039065145894	1.8870987141700324	-0.447296877769536	-0.26040392125139566	1.7378752056083704	-0.396290929135859													-0.2247995553310685	1.893815274830792	-0.5645022140321332	-0.2226996281151555	1.7442572418493603	-0.5462609567178706	-0.21093275456896582	1.6056680593132397	-0.5356289081008255	-0.21619517113051404	1.5618084860243548	-0.5959599485611963	-0.20789739663015486	1.5733548206818453	-0.6059601170724214	-0.21160144778456344	1.5878627802992957	-0.5020406019721283	-0.23814497716466557	2.058061229321401	-0.5044038121149689	-0.2488361263956422	2.13318382121436	-0.5494195370633128	-0.26097845118716145	2.059831332250529	-0.42055296150110105	-0.29905052471460575	2.002455902159197	-0.4236958136145341	-0.3444574329606795	1.9692675818188452	-0.4679576842751168	-0.2157004132718317	2.058423499989921	-0.5900387353586931	-0.2031333238328492	1.983856361981567	-0.6143509947468746	-0.19864148712948712	1.9246080813997786	-0.6809319399140419
63	2.1	-0.24499435459567456	1.8894102974945122	-0.5033450575643699	-0.26189375955651484	1.8862297381598283	-0.44485609803455545	-0.26018203180724636	1.7362069897422623	-0.39615104226883785													-0.22694529759953902	1.8921438166675382	-0.5620496299534792	-0.22289843910278945	1.7446129522539813	-0.5501498591154061	-0.21152175297631307	1.6037309179593666	-0.5391319860926268	-0.2160590448868885	1.561410523312334	-0.5960435104730568	-0.2066179547517392	1.5730411437718972	-0.6112737141631491	-0.21174003927721774	1.589623577591222	-0.5035986310699624	-0.23719949533963122	2.061627197616272	-0.5022943328378167	-0.24687092151430068	2.1341063308720782	-0.5431582039575227	-0.2617550727700843	2.063564249328568	-0.41631620945213005	-0.2969805996632256	2.0155000889960033	-0.41315265146231034	-0.34617566522330145	1.9956126941003882	-0.464102372134191	-0.21474607468880796	2.0609244337732764	-0.5873990820383471	-0.19915221495454968	1.9852575323110617	-0.6103228181157676	-0.198119735449408	1.940727176470407	-0.7033531273313557
64	2.1333333333333333	-0.24382943180904113	1.8931428173507907	-0.5009057235479519	-0.2587439643511979	1.8902818611659558	-0.444408259475247	-0.26108868830845866	1.740194386222173	-0.3955458858621861													-0.2247894129056236	1.8960233055462956	-0.5646726252457013	-0.22269710596056988	1.748702723115369	-0.5507912342987218	-0.21097470308269292	1.606164003261095	-0.5400881201753499	-0.21840562065321342	1.5621129219756476	-0.5938074016703835	-0.2088114197231542	1.5732624150416772	-0.6091897948380158	-0.21187863076987204	1.591384374883148	-0.5051566601677965	-0.23709523656934348	2.0654718771339375	-0.503141870735945	-0.24682665351037691	2.1353686724813903	-0.5429269673362066	-0.2587602631599368	2.065337926386809	-0.41586595437108276	-0.3043905420202888	2.03193573827877	-0.4015622972289033	-0.35709181435399096	2.0310374360078463	-0.4591865710072351	-0.21465358569330786	2.063859217369462	-0.5876343431149157	-0.2024387938719126	1.9876404371327054	-0.6228795048701097	-0.19948937442453102	1.9528853918506237	-0.7223728515840993
65	2.1666666666666665	-0.24407232430921783	1.8933855722188666	-0.5008400966649089	-0.25969647982489846	1.8916529645652538	-0.4392116997491226	-0.26199534480967096	1.7441817827020836	-0.3949407294555343													-0.2260745855293077	1.895681782816206	-0.5595888662638957	-0.22139899360587537	1.7516381559259513	-0.5526094098296149	-0.21117017711268118	1.6076418186588146	-0.5398472582685795	-0.21659562234250535	1.563912917555797	-0.5956338238800011	-0.20699287138344205	1.574930867219332	-0.6110463479306542	-0.21201722226252634	1.5931451721750742	-0.5067146892656306	-0.23604987829522392	2.066477955856917	-0.49999527493612383	-0.2467450770036412	2.137808631272202	-0.5432173011704029	-0.25767933994342695	2.066210242441269	-0.41279128735060433	-0.31098109736131824	2.0390078015441264	-0.40713904868426737	-0.35993361391489354	2.054990206007517	-0.4663825024150455	-0.21543605632222076	2.062862266150232	-0.5812052102680366	-0.20129017142506953	1.9886143792525877	-0.6289191515998007	-0.19919799799128118	1.9736256355201645	-0.7366532990940163
66	2.2	-0.2446468592460735	1.8944821594946408	-0.4954647092194096	-0.2563767783423586	1.890996520032858	-0.4292219341038652	-0.2629358938766245	1.74404941395982	-0.38941001800894204													-0.22770689165482746	1.8959731880620374	-0.5571286388101544	-0.22271171302051568	1.7519653473296262	-0.5511374754504744	-0.2108239664830544	1.6086649635398511	-0.5404520654333029	-0.21879827877594185	1.5642692740914603	-0.5934287687476152	-0.20696783029814667	1.5749733308421103	-0.6110633307142536	-0.21055586871277188	1.5958503550550769	-0.5012197644741643	-0.2378855391504073	2.0651648329331453	-0.497310992387138	-0.2456070812124404	2.138830096395077	-0.5401014626810404	-0.2558595841905001	2.066244824691379	-0.4148186637349803	-0.2984765693611008	2.0500726165386136	-0.4112573088565031	-0.3449720312405805	2.084395558742628	-0.4921155931643174	-0.21374419205942896	2.0621128711359096	-0.5749817829409591	-0.19887665591794776	1.9945332533627915	-0.6407292025129802	-0.20222683653927295	1.999139386284031	-0.7544072047224795
